<svg width="22" height="20" viewBox="0 0 22 20" fill="none" xmlns="http://www.w3.org/2000/svg">
<path id="logo-computer" d="M1 19.5925C0.71667 19.5925 0.479003 19.488 0.287003 19.279C0.0950034 19.07 -0.000663206 18.8117 3.46021e-06 18.504C3.46021e-06 18.1956 0.0960034 17.9369 0.288003 17.7279C0.480003 17.519 0.717337 17.4148 1 17.4156H21C21.2833 17.4156 21.521 17.52 21.713 17.729C21.905 17.938 22.0007 18.1964 22 18.504C22 18.8124 21.904 19.0711 21.712 19.2801C21.52 19.4891 21.2827 19.5932 21 19.5925H1ZM3 16.3271C2.45 16.3271 1.979 16.1137 1.587 15.6871C1.195 15.2604 0.999337 14.7481 1 14.1501V2.17695C1 1.57829 1.196 1.06562 1.588 0.638935C1.98 0.212254 2.45067 -0.0007238 3 1.848e-06H19C19.55 1.848e-06 20.021 0.213342 20.413 0.640023C20.805 1.0667 21.0007 1.57901 21 2.17695V14.1501C21 14.7488 20.804 15.2615 20.412 15.6881C20.02 16.1148 19.5493 16.3278 19 16.3271H3ZM3 14.1501H19V2.17695H3V14.1501Z" fill="black"/>
</svg>
