<svg width="38" height="40" viewBox="0 0 38 40" fill="none" xmlns="http://www.w3.org/2000/svg">
<g id="logos:tiktok-icon" clip-path="url(#clip0_113_94)">
<path id="Vector" d="M28.1616 14.4028C30.9341 16.2435 34.3306 17.3266 37.999 17.3266V10.7707C37.3047 10.7708 36.6122 10.7035 35.933 10.5699V15.7303C32.265 15.7303 28.8689 14.6474 26.0957 12.8068V26.1856C26.0957 32.8784 20.2538 38.3035 13.0481 38.3035C10.3594 38.3035 7.86035 37.5486 5.78445 36.2539C8.15381 38.5039 11.458 39.8997 15.1135 39.8997C22.3198 39.8997 28.1619 34.4746 28.1619 27.7815V14.4028H28.1616ZM30.7102 7.78877C29.2932 6.35112 28.3628 4.49319 28.1616 2.43912V1.59595H26.2038C26.6966 4.20657 28.3777 6.43691 30.7102 7.78877ZM10.3421 31.1182C9.55045 30.1542 9.12252 28.9748 9.12445 27.7623C9.12445 24.7013 11.7965 22.2194 15.0931 22.2194C15.7074 22.2191 16.318 22.3067 16.9036 22.4791V15.7766C16.2193 15.6896 15.5288 15.6525 14.8385 15.6662V20.883C14.2527 20.7104 13.6417 20.6229 13.0272 20.6234C9.73067 20.6234 7.05879 23.1051 7.05879 26.1664C7.05879 28.3311 8.39428 30.2052 10.3421 31.1182Z" fill="#FF004F"/>
<path id="Vector_2" d="M26.0958 12.8067C28.869 14.6473 32.2648 15.7302 35.933 15.7302V10.5697C33.8855 10.1646 32.0729 9.17098 30.7101 7.78877C28.3774 6.43678 26.6966 4.20643 26.2038 1.59595H21.0615V27.7812C21.0498 30.8339 18.3824 33.3056 15.0928 33.3056C13.1545 33.3056 11.4324 32.4475 10.3418 31.118C8.3943 30.2052 7.05866 28.331 7.05866 26.1666C7.05866 23.1055 9.73053 20.6235 13.027 20.6235C13.6586 20.6235 14.2674 20.7148 14.8384 20.8831V15.6663C7.75913 15.8022 2.06581 21.1743 2.06581 27.7813C2.06581 31.0795 3.48354 34.0695 5.78462 36.2542C7.86051 37.5486 10.3595 38.3038 13.0483 38.3038C20.2542 38.3038 26.0959 32.8783 26.0959 26.1856V12.8068L26.0958 12.8067Z" fill="black"/>
<path id="Vector_3" d="M35.933 10.5697V9.17462C34.0866 9.17722 32.2766 8.69699 30.7101 7.78883C32.0968 9.19877 33.9228 10.1711 35.933 10.5699V10.5697ZM26.2037 1.59586C26.1567 1.34643 26.1206 1.09532 26.0956 0.843172V0H18.9953V26.1855C18.984 29.2379 16.3165 31.7097 13.0269 31.7097C12.0943 31.7109 11.1744 31.5084 10.3416 31.1183C11.4322 32.4476 13.1544 33.3055 15.0927 33.3055C18.3821 33.3055 21.0498 30.8341 21.0613 27.7814V1.596H26.2037V1.59586ZM14.8387 15.6662V14.1808C14.2454 14.1055 13.6472 14.0678 13.0484 14.068C5.84176 14.068 0 19.4934 0 26.1855C0 30.3812 2.29588 34.0789 5.78476 36.2539C3.48368 34.0694 2.06595 31.0793 2.06595 27.7812C2.06595 21.1743 7.75913 15.8021 14.8387 15.6662Z" fill="#00F2EA"/>
</g>
<defs>
<clipPath id="clip0_113_94">
<rect width="38" height="40" fill="white"/>
</clipPath>
</defs>
</svg>
