<svg width="26" height="20" viewBox="0 0 26 20" fill="none" xmlns="http://www.w3.org/2000/svg">
<path id="logo-teacher-chalkboard" d="M8.45004 13.75C8.35295 13.75 8.25586 13.7637 8.16323 13.7926C7.63673 13.957 7.08302 14.0625 6.50005 14.0625C5.91708 14.0625 5.36336 13.957 4.83646 13.7926C4.74383 13.7637 4.64715 13.75 4.55005 13.75C2.02887 13.75 -0.0133406 15.7219 6.56287e-05 18.1492C0.00575311 19.175 0.882845 20 1.95006 20H11.05C12.1173 20 12.9943 19.175 13 18.1492C13.0134 15.7219 10.9712 13.75 8.45004 13.75ZM6.50005 12.5C8.65398 12.5 10.4 10.8211 10.4 8.75C10.4 6.67891 8.65398 5 6.50005 5C4.34612 5 2.60006 6.67891 2.60006 8.75C2.60006 10.8211 4.34612 12.5 6.50005 12.5ZM24.05 0H8.45004C7.3747 0 6.50005 0.869141 6.50005 1.93711V3.75C7.45148 3.75 8.33223 4.01484 9.10004 4.44531V2.5H23.4V13.75H20.8V11.25H15.6V13.75H12.5028C13.2787 14.402 13.8483 15.2629 14.1152 16.25H24.05C25.1253 16.25 26 15.3809 26 14.3129V1.93711C26 0.869141 25.1253 0 24.05 0Z" fill="black"/>
</svg>
