<svg width="23" height="15" viewBox="0 0 23 15" fill="none" xmlns="http://www.w3.org/2000/svg">
<path id="logo-youtube" d="M9.2 10.7143L15.1685 7.5L9.2 4.28571V10.7143ZM22.494 2.325C22.6435 2.82857 22.747 3.50357 22.816 4.36071C22.8965 5.21786 22.931 5.95714 22.931 6.6L23 7.5C23 9.84643 22.816 11.5714 22.494 12.675C22.2065 13.6393 21.5395 14.2607 20.5045 14.5286C19.964 14.6679 18.975 14.7643 17.457 14.8286C15.962 14.9036 14.5935 14.9357 13.3285 14.9357L11.5 15C6.6815 15 3.68 14.8286 2.4955 14.5286C1.4605 14.2607 0.7935 13.6393 0.506 12.675C0.3565 12.1714 0.253 11.4964 0.184 10.6393C0.1035 9.78214 0.0689999 9.04286 0.0689999 8.4L0 7.5C0 5.15357 0.184 3.42857 0.506 2.325C0.7935 1.36071 1.4605 0.739286 2.4955 0.471429C3.036 0.332143 4.025 0.235714 5.543 0.171428C7.038 0.0964284 8.4065 0.0642857 9.6715 0.0642857L11.5 0C16.3185 0 19.32 0.171429 20.5045 0.471429C21.5395 0.739286 22.2065 1.36071 22.494 2.325Z" fill="black"/>
</svg>
