<svg width="52" height="33" viewBox="0 0 52 33" fill="none" xmlns="http://www.w3.org/2000/svg">
<g id="logos:youtube-icon" clip-path="url(#clip0_113_91)">
<path id="Vector" d="M50.8516 5.14708C50.5533 4.15224 49.9715 3.24526 49.1641 2.51648C48.3567 1.78771 47.3518 1.26255 46.2496 0.9933C42.2143 0 25.9736 0 25.9736 0C25.9736 0 9.73216 0.0300666 5.69688 1.02337C4.59462 1.29263 3.58975 1.81782 2.78233 2.54663C1.97491 3.27544 1.39312 4.18245 1.09488 5.17733C-0.125695 11.6486 -0.59918 21.5094 1.1284 27.7218C1.42666 28.7167 2.00847 29.6236 2.81589 30.3524C3.62331 31.0812 4.62817 31.6064 5.7304 31.8756C9.76568 32.8689 26.0067 32.8689 26.0067 32.8689C26.0067 32.8689 42.2476 32.8689 46.2827 31.8756C47.385 31.6064 48.3899 31.0812 49.1973 30.3525C50.0048 29.6237 50.5866 28.7167 50.8849 27.7218C52.1723 21.2414 52.569 11.3866 50.8516 5.14708Z" fill="#FF0000"/>
<path id="Vector_2" d="M20.8043 23.4777L34.2771 16.4344L20.8043 9.39111V23.4777Z" fill="white"/>
</g>
<defs>
<clipPath id="clip0_113_91">
<rect width="52" height="33" fill="white"/>
</clipPath>
</defs>
</svg>
