<svg width="26" height="22" viewBox="0 0 26 22" fill="none" xmlns="http://www.w3.org/2000/svg">
<path id="logo-people-arrow" d="M1.84828 2.72118C1.84828 1.99948 2.14201 1.30734 2.66484 0.797015C3.18768 0.286695 3.8968 0 4.63621 0C5.37561 0 6.08473 0.286695 6.60757 0.797015C7.13041 1.30734 7.42414 1.99948 7.42414 2.72118C7.42414 3.44288 7.13041 4.13502 6.60757 4.64534C6.08473 5.15566 5.37561 5.44236 4.63621 5.44236C3.8968 5.44236 3.18768 5.15566 2.66484 4.64534C2.14201 4.13502 1.84828 3.44288 1.84828 2.72118ZM0.188589 9.9238C0.336697 8.15929 1.84828 6.80295 3.66043 6.80295H5.61198C6.78814 6.80295 7.83362 7.3727 8.46526 8.25283C8.34764 8.33361 8.23874 8.4229 8.13855 8.52069L5.35062 11.2419C4.39662 12.173 4.39662 13.6782 5.35062 14.6093L7.42414 16.6332V19.7286C7.42414 20.8553 6.48757 21.7694 5.33319 21.7694H3.93923C2.78485 21.7694 1.84828 20.8553 1.84828 19.7286V14.8092C0.693901 14.4052 -0.0989168 13.287 0.00998674 12.02L0.188589 9.9238ZM18.5759 2.72118C18.5759 1.99948 18.8696 1.30734 19.3924 0.797015C19.9153 0.286695 20.6244 0 21.3638 0C22.1032 0 22.8123 0.286695 23.3352 0.797015C23.858 1.30734 24.1517 1.99948 24.1517 2.72118C24.1517 3.44288 23.858 4.13502 23.3352 4.64534C22.8123 5.15566 22.1032 5.44236 21.3638 5.44236C20.6244 5.44236 19.9153 5.15566 19.3924 4.64534C18.8696 4.13502 18.5759 3.44288 18.5759 2.72118ZM17.8615 8.52069C17.7613 8.4229 17.648 8.33361 17.5347 8.25283C18.1664 7.3727 19.2162 6.80295 20.388 6.80295H22.3396C24.1517 6.80295 25.6633 8.15929 25.8114 9.9238L25.99 12.02C26.0989 13.287 25.3061 14.4052 24.1517 14.8092V19.7286C24.1517 20.8553 23.2152 21.7694 22.0608 21.7694H20.6668C19.5124 21.7694 18.5759 20.8553 18.5759 19.7286V16.6332L20.6494 14.6093C21.6034 13.6782 21.6034 12.173 20.6494 11.2419L17.8615 8.52069ZM10.9091 10.2044V11.565H15.0909V10.2044C15.0909 9.792 15.3436 9.41783 15.7357 9.26052C16.1277 9.1032 16.5764 9.18823 16.877 9.48161L19.6649 12.2028C20.0744 12.6025 20.0744 13.2487 19.6649 13.6442L16.877 16.3653C16.5764 16.6587 16.1277 16.7438 15.7357 16.5864C15.3436 16.4291 15.0909 16.055 15.0909 15.6425V14.2862H10.9091V15.6468C10.9091 16.0592 10.6564 16.4334 10.2643 16.5907C9.87229 16.748 9.42361 16.663 9.12303 16.3696L6.3351 13.6484C5.92563 13.2487 5.92563 12.6025 6.3351 12.207L9.12303 9.48586C9.42361 9.19249 9.87229 9.10745 10.2643 9.26477C10.6564 9.42208 10.9091 9.79625 10.9091 10.2087V10.2044Z" fill="black"/>
</svg>
